<!-- Generated by IcoMoon.io -->
<svg version="1.1" xmlns="http://www.w3.org/2000/svg" width="32" height="32" viewBox="0 0 32 32">
<title>find</title>
<path d="M31.605 27.922l-2.665-5.343c-0.456-0.914-1.376-1.482-2.401-1.482-0.126 0-0.252 0.010-0.376 0.028l-0.776-1.556c1.545-1.031 2.7-2.533 3.299-4.323 0.713-2.133 0.553-4.416-0.45-6.428-1.098-2.203-3.050-3.765-5.348-4.377-2.384-2.721-5.882-4.442-9.775-4.442-7.168 0-13 5.834-13 13.006s5.832 13.006 13 13.006c4.282 0 8.085-2.083 10.455-5.288l0.676 1.357c-0.796 0.792-1.037 2.036-0.509 3.095l2.665 5.343c0.456 0.914 1.376 1.482 2.401 1.482h0c0.411 0 0.822-0.097 1.19-0.28l0.412-0.205c1.322-0.659 1.861-2.271 1.202-3.592zM26.318 9.774c0.748 1.5 0.868 3.202 0.336 4.792s-1.651 2.878-3.151 3.626c-0.88 0.439-1.821 0.662-2.796 0.662-2.398 0-4.552-1.332-5.622-3.477-1.545-3.097-0.282-6.874 2.815-8.418 0.88-0.439 1.821-0.661 2.796-0.661 2.398 0 4.553 1.332 5.622 3.477zM19.513 4.238c-0.604 0.086-1.196 0.238-1.77 0.455-0.065-0.181-0.132-0.358-0.202-0.531-0.198-0.486-0.412-0.932-0.64-1.338 0.939 0.351 1.816 0.83 2.612 1.413zM15.839 5.842h-5.499c0.782-2.373 1.878-3.7 2.773-3.7 0.878 0 1.947 1.415 2.726 3.7zM9.786 7.985h3.864c-0.768 1.183-1.229 2.544-1.339 3.95h-2.963c0.053-1.46 0.209-2.783 0.439-3.95zM3.488 7.985h4.129c-0.225 1.245-0.365 2.576-0.413 3.95h-4.895c0.139-1.413 0.55-2.747 1.179-3.95zM3.488 18.027c-0.629-1.203-1.040-2.537-1.179-3.95h4.895c0.048 1.374 0.188 2.704 0.413 3.95h-4.129zM4.959 20.17h3.153c0.17 0.592 0.361 1.155 0.575 1.679 0.198 0.486 0.412 0.932 0.64 1.338-1.696-0.634-3.193-1.68-4.367-3.017zM8.686 4.163c-0.213 0.524-0.404 1.087-0.574 1.679h-3.153c1.174-1.337 2.671-2.383 4.367-3.017-0.228 0.405-0.442 0.852-0.64 1.338zM9.347 14.077h3.073c0.138 0.766 0.384 1.525 0.748 2.256 0.308 0.617 0.683 1.184 1.114 1.694h-4.496c-0.23-1.167-0.386-2.49-0.439-3.95zM13.113 23.869c-0.896 0-1.991-1.327-2.773-3.7h5.546c-0.782 2.373-1.878 3.7-2.773 3.7zM17.541 21.849c0.167-0.409 0.319-0.842 0.459-1.294 0.782 0.263 1.61 0.413 2.463 0.437-1.026 0.946-2.232 1.697-3.562 2.194 0.228-0.405 0.442-0.852 0.64-1.338zM29.448 29.597l-0.412 0.205c-0.074 0.037-0.152 0.055-0.234 0.055-0.204 0-0.395-0.116-0.484-0.296l-2.665-5.343c-0.13-0.26-0.020-0.589 0.24-0.719l0.411-0.205c0.074-0.037 0.153-0.055 0.234-0.055 0.204 0 0.394 0.116 0.484 0.295l2.665 5.343c0.13 0.26 0.020 0.589-0.24 0.718z"></path>
</svg>


